<?xml version="1.0" ?><svg id="fill" viewBox="0 0 64 64" xmlns="http://www.w3.org/2000/svg"><path d="M18,13H14V25h4c1.657,0,3-2.686,3-6S19.657,13,18,13Z" style="fill:#d9dae2"/><path d="M18,23H14v2h4c1.657,0,3-2.686,3-6,0-.341-.018-.674-.045-1C20.717,20.837,19.486,23,18,23Z" style="fill:#cfcfd9"/><rect height="18.385" style="fill:#d9dae2" transform="translate(-30.947 27.287) rotate(-45)" width="9.899" x="12.515" y="41.808"/><polygon points="25.732 52.268 20 58 8.732 46.732 7.464 48 20.464 61 27.464 54 25.732 52.268" style="fill:#cfcfd9"/><path d="M25.732,52.268,14.464,41,8.732,46.732l5.536,5.536a8.106,8.106,0,0,0,11.464,0Z" style="fill:#e5e6eb"/><path d="M32.464,38.932l3.508,3.547a3.526,3.526,0,0,0,5,.014h0a3.527,3.527,0,0,0,0-4.986L33.464,30h-8l-8,8,17,17h16l5.5-5.5a3.535,3.535,0,0,0,0-5h0a3.535,3.535,0,0,0-5,0l-3.5,3.5h-6Z" style="fill:#027de5"/><path d="M55.964,46.5h0A18.774,18.774,0,0,1,42.686,52h-.443a18.778,18.778,0,0,1-13.279-5.5l-10-10-1.5,1.5,17,17h16l5.5-5.5a3.525,3.525,0,0,0,.688-4A3.5,3.5,0,0,1,55.964,46.5Z" style="fill:#0468ad"/><path d="M38,9H34V21h4c1.657,0,3-2.686,3-6S39.657,9,38,9Z" style="fill:#d9dae2"/><ellipse cx="14" cy="19" rx="3" ry="6" style="fill:#e5e6eb"/><path d="M57,18H53V30h4c1.657,0,3-2.686,3-6S58.657,18,57,18Z" style="fill:#d9dae2"/><path d="M38,19H34v2h4c1.657,0,3-2.686,3-6,0-.341-.018-.674-.045-1C40.717,16.837,39.486,19,38,19Z" style="fill:#cfcfd9"/><path d="M57,28H53v2h4c1.657,0,3-2.686,3-6,0-.341-.018-.674-.045-1C59.717,25.837,58.486,28,57,28Z" style="fill:#cfcfd9"/><rect height="5" style="fill:#94c7f2" width="2" x="54" y="10"/><rect height="4" style="fill:#94c7f2" width="2" x="15" y="6"/><rect height="5" style="fill:#94c7f2" width="2" x="35" y="2"/><ellipse cx="34" cy="15" rx="3" ry="6" style="fill:#e5e6eb"/><ellipse cx="53" cy="24" rx="3" ry="6" style="fill:#e5e6eb"/><polygon points="18 47 15 44 12 47 18 47" style="fill:#fff"/><path d="M38,8H34c-2.28,0-4,3.009-4,7s1.72,7,4,7h4c2.28,0,4-3.009,4-7S40.28,8,38,8Zm-6,7c0-3.052,1.185-5,2-5s2,1.948,2,5-1.185,5-2,5S32,18.052,32,15Zm6,5H36.853A10.239,10.239,0,0,0,38,15a10.239,10.239,0,0,0-1.147-5H38c.815,0,2,1.948,2,5S38.815,20,38,20Z"/><path d="M18,12H14c-2.28,0-4,3.009-4,7s1.72,7,4,7h4c2.28,0,4-3.009,4-7S20.28,12,18,12Zm-6,7c0-3.052,1.185-5,2-5s2,1.948,2,5-1.185,5-2,5S12,22.052,12,19Zm6,5H16.853A10.239,10.239,0,0,0,18,19a10.239,10.239,0,0,0-1.147-5H18c.815,0,2,1.948,2,5S18.815,24,18,24Z"/><path d="M57,17H53c-2.28,0-4,3.009-4,7s1.72,7,4,7h4c2.28,0,4-3.009,4-7S59.28,17,57,17Zm-6,7c0-3.052,1.185-5,2-5s2,1.948,2,5-1.185,5-2,5S51,27.052,51,24Zm6,5H55.853A10.239,10.239,0,0,0,57,24a10.239,10.239,0,0,0-1.147-5H57c.815,0,2,1.948,2,5S57.815,29,57,29Z"/><rect height="5" width="2" x="54" y="10"/><rect height="4" width="2" x="15" y="6"/><rect height="5" width="2" x="35" y="2"/></svg>