<?xml version="1.0" ?><svg id="fill" viewBox="0 0 64 64" xmlns="http://www.w3.org/2000/svg"><path d="M37,3A23.993,23.993,0,0,0,18.152,41.848L3,57l4,4L22.152,45.848A24,24,0,1,0,37,3Z" style="fill:#e5e6eb"/><rect height="5.657" style="fill:#444" transform="translate(-34.755 23.094) rotate(-45)" width="15.556" x="2.722" y="50.672"/><rect height="2.828" transform="translate(-35.169 24.094) rotate(-45)" width="15.556" x="3.722" y="53.086"/><circle cx="37" cy="27" r="20" style="fill:#d9dae2"/><circle cx="37" cy="27" r="19" style="fill:#cceaff"/><rect height="2" style="fill:#fff" width="27" x="24" y="33"/><rect height="8" style="fill:#027de5" width="4" x="27" y="26"/><rect height="14" style="fill:#027de5" width="4" x="35" y="20"/><rect height="16" style="fill:#027de5" width="4" x="43" y="18"/><path d="M52.938,9.062A24,24,0,0,1,19.062,42.938,24,24,0,1,0,52.938,9.062Z" style="fill:#cfcfd9"/><path d="M16,48l2,2,4.156-4.156a23.946,23.946,0,0,1-2.12-1.88Z" style="fill:#d9dae2"/><path d="M37,7A20,20,0,1,0,57,27,20.023,20.023,0,0,0,37,7Zm0,38A18,18,0,1,1,55,27,18.021,18.021,0,0,1,37,45Z"/><path d="M37,2A25.028,25.028,0,0,0,12,27a24.715,24.715,0,0,0,4.827,14.758L2.293,56.293a1,1,0,0,0,0,1.414l4,4a1,1,0,0,0,1.414,0L22.241,47.173A24.721,24.721,0,0,0,37,52,25,25,0,0,0,37,2ZM7,59.586,4.414,57,14,47.414,16.586,50ZM37,50a22.754,22.754,0,0,1-14.229-4.938,1,1,0,0,0-1.326.079L18,48.586,15.414,46l3.445-3.445a1,1,0,0,0,.078-1.326A22.757,22.757,0,0,1,14,27,23,23,0,1,1,37,50Z"/></svg>