<?xml version="1.0" ?><svg id="fill" viewBox="0 0 64 64" xmlns="http://www.w3.org/2000/svg"><path d="M16,28h8.042A5.958,5.958,0,0,1,30,33.958V36a0,0,0,0,1,0,0H21.958A5.958,5.958,0,0,1,16,30.042V28A0,0,0,0,1,16,28Z" style="fill:#027de5"/><path d="M39.958,28H48a0,0,0,0,1,0,0v2.042A5.958,5.958,0,0,1,42.042,36H34a0,0,0,0,1,0,0V33.958A5.958,5.958,0,0,1,39.958,28Z" style="fill:#027de5" transform="translate(82 64) rotate(-180)"/><path d="M46,28v.042A5.959,5.959,0,0,1,40.042,34H34V22a2,2,0,0,0-4,0V34H23.958A5.959,5.959,0,0,1,18,28.042V28H16v2.042A5.959,5.959,0,0,0,21.958,36H30v7h4V36h8.042A5.959,5.959,0,0,0,48,30.042V28Z" style="fill:#0468ad"/><circle cx="32" cy="13" r="10" style="fill:#027de5"/><polygon points="42 61 22 61 18.802 46.076 45.198 46.076 42 61" style="fill:#cfcfd9"/><path d="M26.737,61H22L18.8,46.076H45.2A18.879,18.879,0,0,1,26.737,61Z" style="fill:#d9dae2"/><rect height="6" style="fill:#e5e6eb" width="32" x="16" y="41"/><rect height="6" style="fill:#cfcfd9" width="4" x="44" y="41"/><rect height="2" style="fill:#444" width="2" x="28" y="55"/><rect height="2" style="fill:#444" width="2" x="34" y="55"/><path d="M48,19h0a2,2,0,0,1,2,2v2a0,0,0,0,1,0,0H48a2,2,0,0,1-2-2v0a2,2,0,0,1,2-2Z" style="fill:#cceaff" transform="translate(67.092 69.79) rotate(-135)"/><path d="M48,8h0a2,2,0,0,1,2,2v2a0,0,0,0,1,0,0H48a2,2,0,0,1-2-2v0A2,2,0,0,1,48,8Z" style="fill:#cceaff" transform="translate(74.87 51.012) rotate(-135)"/><path d="M17,14.828h0a2,2,0,0,1,2,2v2a0,0,0,0,1,0,0H17a2,2,0,0,1-2-2v0a2,2,0,0,1,2-2Z" style="fill:#cceaff" transform="translate(17.121 40.749) rotate(-135)"/><path d="M17,3.828h0a2,2,0,0,1,2,2v2a0,0,0,0,1,0,0H17a2,2,0,0,1-2-2v0a2,2,0,0,1,2-2Z" style="fill:#cceaff" transform="translate(24.899 21.971) rotate(-135)"/><rect height="13" style="fill:#027de5" width="2" x="30" y="21"/><path d="M37.992,5.008A9.986,9.986,0,0,1,24.008,18.992,9.991,9.991,0,1,0,37.992,5.008Z" style="fill:#0468ad"/><path d="M31.344,10.49a1.025,1.025,0,0,1-.069-1.512,1.051,1.051,0,0,1,1.45,0l1.568,1.568,1.414-1.414L34.139,7.563A2.99,2.99,0,0,0,33,6.859V3.05c-.329-.032-.662-.05-1-.05s-.671.018-1,.05V6.858a3,3,0,0,0-1.14.705,3.027,3.027,0,0,0,.2,4.464l2.593,2.161a1.025,1.025,0,0,1,.07,1.511,1.027,1.027,0,0,1-1.451,0l-1.568-1.568-1.414,1.414,1.568,1.569a2.983,2.983,0,0,0,1.139.7V22.95c.329.032.662.05,1,.05s.671-.018,1-.05V17.818a3,3,0,0,0,1.14-.7,3.028,3.028,0,0,0-.2-4.464Z" style="fill:#fff"/><path d="M48,40H16a1,1,0,0,0-1,1v6a1,1,0,0,0,1,1h2.191l2.831,13.21A1,1,0,0,0,22,62H42a1,1,0,0,0,.978-.79L45.809,48H48a1,1,0,0,0,1-1V41A1,1,0,0,0,48,40ZM41.191,60H22.809L20.237,48H43.763ZM47,46H17V42H47Z"/><rect height="2" width="2" x="28" y="55"/><rect height="2" width="2" x="34" y="55"/></svg>