<?xml version="1.0" ?><svg id="fill" viewBox="0 0 64 64" xmlns="http://www.w3.org/2000/svg"><path d="M42,19,32,3,22,19,11,3V41H53V3ZM32,22l-3-5,3-5,3,5Z" style="fill:#e5e6eb"/><path d="M50.1,7.221A38.006,38.006,0,0,1,13,37H11v4H53V3Z" style="fill:#d9dae2"/><path d="M28.651,27a6,6,0,1,0,0,4H35v4h4V31h4v4h4V27ZM23,31a2,2,0,1,1,2-2A2,2,0,0,1,23,31Z" style="fill:#027de5"/><polygon points="61 61 44 61 44 51 61 51 56 56 61 61" style="fill:#e5e6eb"/><polygon points="3 61 20 61 20 51 3 51 8 56 3 61" style="fill:#e5e6eb"/><path d="M16,57h4a0,0,0,0,1,0,0v4a0,0,0,0,1,0,0h0a4,4,0,0,1-4-4v0A0,0,0,0,1,16,57Z" style="fill:#cfcfd9"/><path d="M44,57h4a0,0,0,0,1,0,0v0a4,4,0,0,1-4,4h0a0,0,0,0,1,0,0V57A0,0,0,0,1,44,57Z" style="fill:#cfcfd9"/><rect height="10" style="fill:#d9dae2" width="32" x="16" y="47"/><path d="M16,47H48a0,0,0,0,1,0,0v0A10,10,0,0,1,38,57H16a0,0,0,0,1,0,0V47a0,0,0,0,1,0,0Z" style="fill:#e5e6eb"/><rect height="4" rx="2" ry="2" style="fill:#e5e6eb" width="46" x="9" y="39"/><path d="M11,43H53a2,2,0,0,0,2-2H9A2,2,0,0,0,11,43Z" style="fill:#cfcfd9"/><path d="M11,44H53a2.993,2.993,0,0,0,1-5.816V3a1,1,0,0,0-1.824-.566L42.04,17.177,32.848,2.47a1.04,1.04,0,0,0-1.7,0L21.96,17.177,11.824,2.434A1,1,0,0,0,10,3V38.184A2.993,2.993,0,0,0,11,44ZM21.176,19.566a.974.974,0,0,0,.845.434,1.006,1.006,0,0,0,.827-.47L32,4.887,41.152,19.53a1.006,1.006,0,0,0,.827.47.978.978,0,0,0,.845-.434L52,6.22V38H12V6.22ZM11,40H53a1,1,0,0,1,0,2H11a1,1,0,0,1,0-2Z"/><path d="M31.143,22.515a1,1,0,0,0,1.714,0l3-5a1,1,0,0,0,0-1.03l-3-5a1.04,1.04,0,0,0-1.714,0l-3,5a1,1,0,0,0,0,1.03ZM32,13.943,33.834,17,32,20.057,30.166,17Z"/><path d="M57.414,56l4.293-4.293A1,1,0,0,0,61,50H49V47a1,1,0,0,0-1-1H16a1,1,0,0,0-1,1v3H3a1,1,0,0,0-.707,1.707L6.586,56,2.293,60.293A1,1,0,0,0,3,62H20a1,1,0,0,0,1-1V58H43v3a1,1,0,0,0,1,1H61a1,1,0,0,0,.707-1.707ZM17,48H47v8H17ZM8.707,56.707a1,1,0,0,0,0-1.414L5.414,52H15v5a4.948,4.948,0,0,0,1.026,3H5.414ZM19,59.829A3.015,3.015,0,0,1,17.176,58H19ZM46.824,58A3.015,3.015,0,0,1,45,59.829V58Zm1.15,2A4.948,4.948,0,0,0,49,57V52h9.586l-3.293,3.293a1,1,0,0,0,0,1.414L58.586,60Z"/></svg>