<?xml version="1.0" ?><svg id="fill" viewBox="0 0 64 64" xmlns="http://www.w3.org/2000/svg"><polygon points="49 7 43 7 33 3 18 13 21 16 32 11 40 15 49 15 49 7" style="fill:#e5e6eb"/><polygon points="32 9 21 14 19.2 12.2 18 13 21 16 32 11 40 15 49 15 49 13 40 13 32 9" style="fill:#d9dae2"/><polygon points="15 57 21 57 31 61 46 51 43 48 32 53 24 49 15 49 15 57" style="fill:#e5e6eb"/><polygon points="31 59 21 55 15 55 15 57 21 57 31 61 46 51 44.8 49.8 31 59" style="fill:#d9dae2"/><circle cx="32" cy="32" r="15" style="fill:#027de5"/><path d="M41.559,20.441A15,15,0,0,1,20.441,41.559,15,15,0,1,0,41.559,20.441Z" style="fill:#0468ad"/><path d="M20,34l3,2,2,1,1,2h2l1-6,3-2,1-2h3l3-2-3-4,7.14-1.02A14.972,14.972,0,0,0,17.05,31H20Z" style="fill:#d9dae2"/><path d="M40,35l-3,1-4,1-1,4,2,3,2-2h2l2.986,1.99a15.036,15.036,0,0,0,4.785-6.047L42,37Z" style="fill:#d9dae2"/><rect height="10" style="fill:#94c7f2" width="6" x="48" y="6"/><polyline points="54 6 54 12 48 6" style="fill:#cceaff"/><rect height="2" style="fill:#85b4e0" width="6" x="48" y="14"/><rect height="10" style="fill:#94c7f2" transform="translate(26 106) rotate(-180)" width="6" x="10" y="48"/><polygon points="10 48 16 48 10 54 10 48" style="fill:#cceaff"/><rect height="2" style="fill:#85b4e0" transform="translate(26 114) rotate(-180)" width="6" x="10" y="56"/><polygon points="15 54 13 54 15 52 15 54" style="fill:#fff"/><polygon points="51 12 49 12 49 10 51 12" style="fill:#fff"/><path d="M32,16A16,16,0,1,0,48,32,16.019,16.019,0,0,0,32,16Zm0,2a13.932,13.932,0,0,1,8.985,3.278l-5.127.732A1,1,0,0,0,35.2,23.6l2.365,3.154L35.7,28H33a1,1,0,0,0-.9.553l-.88,1.762-2.78,1.853a1,1,0,0,0-.431.667L27.153,38h-.535L25.9,36.553a1,1,0,0,0-.448-.448L23.5,35.133,21,33.465V31a1,1,0,0,0-1-1H18.16A14.009,14.009,0,0,1,32,18ZM18,32h1v2a1,1,0,0,0,.445.832l3,2a1.05,1.05,0,0,0,.108.063l1.7.85.85,1.7A1,1,0,0,0,26,40h2a1,1,0,0,0,.986-.835l.929-5.573,2.64-1.76a1.018,1.018,0,0,0,.34-.385L33.618,30H36a1.006,1.006,0,0,0,.555-.168l3-2A1,1,0,0,0,39.8,26.4l-1.987-2.649,4.937-.705a13.886,13.886,0,0,1,2.4,13.711l-2.638-.66-1.8-1.8a1,1,0,0,0-1.023-.242l-2.926.979-4,1a1,1,0,0,0-.728.727l-1,4a1,1,0,0,0,.138.8l2,3A1,1,0,0,0,33.9,45,.842.842,0,0,0,34,45a1,1,0,0,0,.707-.293L36.414,43H37.7l1.489.993A13.971,13.971,0,0,1,18,32ZM40.943,42.76l-2.388-1.592A1.006,1.006,0,0,0,38,41H36a1,1,0,0,0-.707.293L34.155,42.43l-1.078-1.617.748-2.989,3.491-.875,2.413-.8,1.564,1.563a1,1,0,0,0,.465.263l2.576.644A14.1,14.1,0,0,1,40.943,42.76Z"/></svg>