<?xml version="1.0" ?><svg id="fill" viewBox="0 0 64 64" xmlns="http://www.w3.org/2000/svg"><polygon points="36 3 36 27 37 27 37 28 61 28 61 3 36 3" style="fill:#e5e6eb"/><path d="M37,3v9.38a4,4,0,1,1,0,5.24V27H27.62a4,4,0,1,0-5.24,0H13V3Z" style="fill:#d9dae2"/><path d="M51.62,27a4,4,0,1,0-5.24,0H37V37.38a4,4,0,1,1,0,5.24V51H61V27Z" style="fill:#d9dae2"/><path d="M28,45a8,8,0,1,0-15.133,3.621A17.9,17.9,0,0,1,15,56.73V57H25v-.276a16.562,16.562,0,0,1,2.034-7.915A7.943,7.943,0,0,0,28,45Z" style="fill:#027de5"/><path d="M21,58H19V50a3,3,0,0,1,3-3,1,1,0,0,0,1-1v-.893a1.083,1.083,0,0,0-.825-1.092A1,1,0,0,0,21,45a1,1,0,0,1-2,0,1,1,0,0,0-2,0H15a3,3,0,0,1,5-2.235c.02-.018.039-.035.059-.051A3.009,3.009,0,0,1,22.5,42.04,3.084,3.084,0,0,1,25,45.107V46a3,3,0,0,1-3,3,1,1,0,0,0-1,1Z" style="fill:#fff"/><rect height="4" style="fill:#027de5" width="2" x="19" y="30"/><rect height="4" style="fill:#027de5" transform="translate(-29.837 26.319) rotate(-59.998)" width="2" x="6.875" y="37"/><rect height="2" style="fill:#027de5" transform="translate(-15.194 21.283) rotate(-29.995)" width="4" x="30.125" y="38"/><rect height="4" style="fill:#027de5" transform="translate(-15.197 11.039) rotate(-30.002)" width="2" x="12" y="31.876"/><rect height="2" style="fill:#027de5" transform="translate(-15.836 40.324) rotate(-60.005)" width="4" x="25" y="32.875"/><rect height="4" style="fill:#0468ad" width="10" x="15" y="57"/><path d="M37,51H61V27A24,24,0,0,1,37,51Z" style="fill:#cfcfd9"/><polygon points="15 11 15 5 21 5 15 11" style="fill:#fff"/><path d="M61,2H13a1,1,0,0,0-1,1V27a1,1,0,0,0,1,1h9.38a1,1,0,0,0,.658-1.753A2.955,2.955,0,0,1,22,24a3,3,0,0,1,6,0,2.955,2.955,0,0,1-1.038,2.247A1,1,0,0,0,27.62,28H36v9.38a1,1,0,0,0,1.753.658A2.955,2.955,0,0,1,40,37a3,3,0,0,1,0,6,2.955,2.955,0,0,1-2.247-1.038A1,1,0,0,0,36,42.62V51a1,1,0,0,0,1,1H61a1,1,0,0,0,1-1V3A1,1,0,0,0,61,2ZM60,26H53.573A4.91,4.91,0,0,0,54,24a5,5,0,0,0-10,0,4.91,4.91,0,0,0,.427,2H38V19.573A4.91,4.91,0,0,0,40,20a5,5,0,0,0,0-10,4.91,4.91,0,0,0-2,.427V4H60ZM25,19a5.006,5.006,0,0,0-5,5,4.91,4.91,0,0,0,.427,2H14V4H36v8.38a1,1,0,0,0,1.753.658A2.955,2.955,0,0,1,40,12a3,3,0,0,1,0,6,2.955,2.955,0,0,1-2.247-1.038A1,1,0,0,0,36,17.62V26H29.573A4.91,4.91,0,0,0,30,24,5.006,5.006,0,0,0,25,19ZM60,50H38V44.573A4.91,4.91,0,0,0,40,45a5,5,0,0,0,0-10,4.91,4.91,0,0,0-2,.427V28h8.38a1,1,0,0,0,.658-1.753A2.955,2.955,0,0,1,46,24a3,3,0,0,1,6,0,2.955,2.955,0,0,1-1.038,2.247A1,1,0,0,0,51.62,28H60Z"/></svg>