<?xml version="1.0" ?><svg id="fill" viewBox="0 0 64 64" xmlns="http://www.w3.org/2000/svg"><path d="M7,24H57a0,0,0,0,1,0,0V58.045A2.955,2.955,0,0,1,54.045,61H9.955A2.955,2.955,0,0,1,7,58.045V24A0,0,0,0,1,7,24Z" style="fill:#e5e6eb"/><rect height="8" style="fill:#cceaff" width="50" x="7" y="24"/><polygon points="22 24 30 32 40 32 32 24 22 24" style="fill:#444"/><polygon points="7 24 7 32 20 32 12 24 7 24" style="fill:#444"/><polygon points="57 24 42 24 50 32 57 32 57 24" style="fill:#444"/><rect height="8" style="fill:#cceaff" transform="translate(-2.511 8.259) rotate(-15)" width="50" x="5.113" y="9.666"/><polygon points="27.146 10.32 21.489 20.118 31.148 17.53 36.805 7.732 27.146 10.32" style="fill:#444"/><polygon points="4.929 16.273 7 24 11.83 22.706 17.487 12.908 4.929 16.273" style="fill:#444"/><polygon points="53.226 3.332 46.464 5.143 40.807 14.941 55.296 11.059 53.226 3.332" style="fill:#444"/><path d="M24.966,42H29a0,0,0,0,1,0,0v8a0,0,0,0,1,0,0H24.966A1.966,1.966,0,0,1,23,48.034V43.966A1.966,1.966,0,0,1,24.966,42Z" style="fill:#0468ad"/><polygon points="38 55 28 50 28 42 38 37 38 55" style="fill:#027de5"/><rect height="2" style="fill:#027de5" transform="translate(-8.873 12.685) rotate(-15.231)" width="4" x="41" y="38.526"/><rect height="2" style="fill:#027de5" width="4" x="41" y="45"/><rect height="4" style="fill:#027de5" transform="translate(-18.937 80.157) rotate(-74.749)" width="2" x="42" y="50.474"/><polygon points="9 40 9 34 15 34 9 40" style="fill:#fff"/><path d="M57,23H14.6l40.96-10.975a1,1,0,0,0,.707-1.225L54.191,3.073a1,1,0,0,0-1.224-.707L4.671,15.307a1,1,0,0,0-.707,1.224L6,24.131V58.045A3.959,3.959,0,0,0,9.955,62h44.09A3.959,3.959,0,0,0,58,58.045V24A1,1,0,0,0,57,23Zm-1,8H50.414l-6-6H56ZM8,25h3.586l6,6H8Zm12.414,6-6-6h7.172l6,6Zm10,0-6-6h7.172l6,6Zm10,0-6-6h7.172l6,6ZM30.489,16.671l-6.927,1.856,4.243-7.349,6.927-1.856ZM37.464,8.59l6.927-1.856-4.243,7.349-6.927,1.856ZM20.83,19.259,13.9,21.115l4.242-7.349,6.927-1.856Zm33.241-8.907-11.19,3L47.123,6l5.4-1.446ZM15.413,14.5l-4.242,7.348-3.464.928-1.553-5.8ZM54.045,60H9.955A1.957,1.957,0,0,1,8,58.045V33H56V58.045A1.957,1.957,0,0,1,54.045,60Z"/></svg>