<?xml version="1.0" ?><svg id="fill" viewBox="0 0 64 64" xmlns="http://www.w3.org/2000/svg"><path d="M12.639,29H16.72a1.959,1.959,0,0,1,1.959,1.959V35a0,0,0,0,1,0,0h-8a0,0,0,0,1,0,0V30.959A1.959,1.959,0,0,1,12.639,29Z" style="fill:#d9dae2" transform="matrix(0.5, -0.866, 0.866, 0.5, -20.373, 28.713)"/><path d="M15.778,28.015a1.959,1.959,0,0,0-2.676.717l-.069.12a1.952,1.952,0,0,1,1.467.2L18,31.072l-3.232,5.6.51.294,4-6.928Z" style="fill:#cfcfd9"/><circle cx="32" cy="42" r="19" style="fill:#d9dae2"/><path d="M32,23c-.338,0-.667.033-1,.05a18.975,18.975,0,0,1,0,37.9c.333.017.662.05,1,.05a19,19,0,0,0,0-38Z" style="fill:#cfcfd9"/><path d="M15,42A18.985,18.985,0,0,1,33,23.05c-.333-.017-.662-.05-1-.05a19,19,0,0,0,0,38c.338,0,.667-.033,1-.05A18.985,18.985,0,0,1,15,42Z" style="fill:#e5e6eb"/><circle cx="32" cy="42" r="15" style="fill:#444"/><path d="M32,27a15,15,0,0,1,0,30Z"/><path d="M37,43H32a1,1,0,0,1-1-1V34h2v7h4Z" style="fill:#fff"/><rect height="12" style="fill:#85b4e0" width="1" x="50.5" y="10"/><path d="M51,21h0a2,2,0,0,1,2,2v4a0,0,0,0,1,0,0H49a0,0,0,0,1,0,0V23A2,2,0,0,1,51,21Z" style="fill:#cceaff"/><path d="M38.863,27.569l-2.37,1.184a14,14,0,1,1-8.986,0l-2.37-1.184a16,16,0,1,0,13.726,0Z"/><path d="M32,22a19.93,19.93,0,0,0-14.255,6l-1.467-.847a2.966,2.966,0,0,0-4.043,1.083l-2.041,3.536a2.96,2.96,0,0,0,1.084,4.042l1.468.848A19.989,19.989,0,1,0,32,22ZM12.278,34.077a.957.957,0,0,1-.351-1.309l2.041-3.536a.961.961,0,0,1,1.31-.35l1.115.643a20.007,20.007,0,0,0-3,5.2ZM32,60A18,18,0,1,1,50,42,18.021,18.021,0,0,1,32,60Z"/><polygon points="42 26 32 31 22 26 22 11 32 14 42 11 42 26" style="fill:#027de5"/><path d="M32,14,22,11v2A14.033,14.033,0,0,1,32,26.44V31l10-5V11Z" style="fill:#0468ad"/><polygon points="32 3 12 10 32 17 52 10 32 3" style="fill:#027de5"/></svg>