<?xml version="1.0" ?><svg id="fill" viewBox="0 0 64 64" xmlns="http://www.w3.org/2000/svg"><polygon points="44 20 52 32 48 47 48 52 28 52 28 20 44 20" style="fill:#d9dae2"/><rect height="44" rx="3.019" ry="3.019" style="fill:#027de5" width="30" x="11" y="3"/><path d="M38,3l0,.017v14A26.981,26.981,0,0,1,11.019,44h0L11,44a3.018,3.018,0,0,0,3.017,3H37.981A3.019,3.019,0,0,0,41,43.981V6.019A3.018,3.018,0,0,0,38,3Z" style="fill:#0468ad"/><rect height="10" style="fill:#cfcfd9" width="22" x="27" y="51"/><rect height="44" style="fill:#444" width="6" x="16" y="3"/><path d="M16,43.533V47h6V41.663A26.732,26.732,0,0,1,16,43.533Z"/><rect height="8" rx="1.869" ry="1.869" style="fill:#cceaff" width="6" x="30" y="8"/><polygon points="38 25 38 37 32 43 32 51 44 51 44 25 38 25" style="fill:#e5e6eb"/><polygon points="33 53 29 57 29 53 33 53" style="fill:#fff"/><path d="M52.966,32.258a1,1,0,0,0-.134-.813l-8-12A1,1,0,0,0,44,19H41v2h2.465l7.452,11.179L47.034,46.742A.978.978,0,0,0,47,47v3H29V47H27v3a1,1,0,0,0-1,1V61a1,1,0,0,0,1,1H49a1,1,0,0,0,1-1V51a1,1,0,0,0-1-1V47.131ZM48,60H28V52H48Z"/><path d="M45,51H43V26H39V37a1,1,0,0,1-.293.707L33,43.414V51H31V43a1,1,0,0,1,.293-.707L37,36.586V25a1,1,0,0,1,1-1h6a1,1,0,0,1,1,1Z"/></svg>