<?xml version="1.0" ?><svg id="fill" viewBox="0 0 64 64" xmlns="http://www.w3.org/2000/svg"><rect height="48" style="fill:#e5e6eb" width="4" x="47" y="8"/><rect height="48" style="fill:#e5e6eb" width="4" x="13" y="8"/><rect height="46" style="fill:#d9dae2" width="2" x="49" y="9"/><rect height="46" style="fill:#d9dae2" width="2" x="15" y="9"/><path d="M42,23V8H22V23a9.99,9.99,0,0,0,5.663,9A9.989,9.989,0,0,0,22,41V56H42V41a9.989,9.989,0,0,0-5.663-9A9.99,9.99,0,0,0,42,23Z" style="fill:#cceaff"/><path d="M42,23V8H22V9H40V24a9.99,9.99,0,0,1-5.663,9A9.989,9.989,0,0,1,40,42V56h2V41a9.989,9.989,0,0,0-5.663-9A9.99,9.99,0,0,0,42,23Z" style="fill:#85b4e0"/><rect height="4" rx="2" ry="2" style="fill:#cfcfd9" width="6" x="12" y="30"/><rect height="4" rx="2" ry="2" style="fill:#cfcfd9" width="6" x="46" y="30"/><path d="M26,21H38a0,0,0,0,1,0,0v2a6,6,0,0,1-6,6h0a6,6,0,0,1-6-6V21A0,0,0,0,1,26,21Z" style="fill:#027de5"/><path d="M38,55H26V45l1.8-1.5a6.559,6.559,0,0,1,8.4,0L38,45Z" style="fill:#027de5"/><rect height="2" style="fill:#027de5" width="2" x="31" y="32"/><rect height="2" style="fill:#027de5" width="2" x="31" y="36"/><line style="fill:none;stroke:#07d2ed;stroke-linejoin:round" x1="31" x2="33" y1="48" y2="48"/><line style="fill:none;stroke:#07d2ed;stroke-linejoin:round" x1="33" x2="35" y1="51" y2="51"/><rect height="6" rx="3" ry="3" style="fill:#444" width="44" x="10" y="3"/><path d="M52.976,3.758c.006.082.024.159.024.242a3,3,0,0,1-3,3H12a2.98,2.98,0,0,1-1.976-.758A2.991,2.991,0,0,0,13,9H51a2.989,2.989,0,0,0,1.976-5.242Z"/><rect height="6" rx="3" ry="3" style="fill:#444" width="44" x="10" y="55"/><path d="M52.976,55.758c.006.082.024.159.024.242a3,3,0,0,1-3,3H12a2.98,2.98,0,0,1-1.976-.758A2.991,2.991,0,0,0,13,61H51a2.989,2.989,0,0,0,1.976-5.242Z"/><path d="M52,54.142V34.22a2.964,2.964,0,0,0,0-4.44V9.858A3.992,3.992,0,0,0,51,2H13a3.992,3.992,0,0,0-1,7.858V29.78a2.964,2.964,0,0,0,0,4.44V54.142A3.992,3.992,0,0,0,13,62H51a3.992,3.992,0,0,0,1-7.858ZM50,54H48V35h2ZM13,32a1,1,0,0,1,1-1h2a1,1,0,0,1,0,2H14A1,1,0,0,1,13,32Zm6,0a2.985,2.985,0,0,0-1-2.22V10h3V23a10.9,10.9,0,0,0,4.687,9A10.9,10.9,0,0,0,21,41V54H18V34.22A2.985,2.985,0,0,0,19,32Zm4,9a8.935,8.935,0,0,1,5.1-8.1,1,1,0,0,0,0-1.8A8.935,8.935,0,0,1,23,23V10H41V23a8.935,8.935,0,0,1-5.1,8.1,1,1,0,0,0,0,1.8A8.935,8.935,0,0,1,41,41V54H23Zm15.313-9A10.9,10.9,0,0,0,43,23V10h3V29.78a2.964,2.964,0,0,0,0,4.44V54H43V41A10.9,10.9,0,0,0,38.313,32ZM51,32a1,1,0,0,1-1,1H48a1,1,0,0,1,0-2h2A1,1,0,0,1,51,32Zm-3-3V10h2V29ZM11,6a2,2,0,0,1,2-2H51a2,2,0,0,1,0,4H13A2,2,0,0,1,11,6Zm3,4h2V29H14Zm2,25V54H14V35ZM51,60H13a2,2,0,0,1,0-4H51a2,2,0,0,1,0,4Z"/></svg>