<?xml version="1.0" ?><svg id="fill" viewBox="0 0 64 64" xmlns="http://www.w3.org/2000/svg"><path d="M12,11H52a0,0,0,0,1,0,0V43.946A17.054,17.054,0,0,1,34.946,61H29.054A17.054,17.054,0,0,1,12,43.946V11A0,0,0,0,1,12,11Z" style="fill:#e5e6eb"/><path d="M50,11V42.946A17.054,17.054,0,0,1,32.946,60H27.054a16.981,16.981,0,0,1-6.524-1.3A16.944,16.944,0,0,0,29.054,61h5.892A17.054,17.054,0,0,0,52,43.946V11Z" style="fill:#cfcfd9"/><rect height="7" style="fill:#cceaff" width="5" x="12" y="22"/><path d="M22.931,3A4.931,4.931,0,0,0,18,7.931V9H12.069A4.069,4.069,0,0,0,8,13.069v6.862A4.069,4.069,0,0,0,12.069,24H18V17H52.039A5.961,5.961,0,0,0,58,11.039V3Z" style="fill:#d9dae2"/><path d="M22.931,3A4.931,4.931,0,0,0,18,7.931V9H12.069A4.069,4.069,0,0,0,8,13.069v6.862A4.069,4.069,0,0,0,12.069,24H18V17H52.039A5.961,5.961,0,0,0,58,11.039V3Z" style="fill:#94c7f2"/><path d="M56,3V9.039A5.961,5.961,0,0,1,50.039,15H16v7H10.069a4.038,4.038,0,0,1-1.691-.378A4.062,4.062,0,0,0,12.069,24H18V17H52.039A5.961,5.961,0,0,0,58,11.039V3Z" style="fill:#85b4e0"/><rect height="7" style="fill:#fff" width="2" x="49" y="32"/><rect height="5" style="fill:#fff" width="2" x="45" y="34"/><rect height="4" style="fill:#fff" width="2" x="41" y="35"/><path d="M18.725,32.978l1.568,1.568,1.414-1.414-1.568-1.568a3.005,3.005,0,0,0-1.139-.7V28H17v2.859a3.015,3.015,0,0,0-.937,5.167l2.593,2.161a1.026,1.026,0,0,1,.069,1.513,1.051,1.051,0,0,1-1.45,0l-1.568-1.568-1.414,1.414,1.568,1.568a2.99,2.99,0,0,0,1.139.7V44h2V41.818a2.99,2.99,0,0,0,1.139-.7,3.025,3.025,0,0,0-.2-4.463L17.344,34.49a1.025,1.025,0,0,1-.069-1.512A1.049,1.049,0,0,1,18.725,32.978Z" style="fill:#fff"/><path d="M51,43.946A16.072,16.072,0,0,1,34.946,60H29.054A16.072,16.072,0,0,1,13,43.946V40H11v3.946A18.074,18.074,0,0,0,29.054,62h5.892A18.074,18.074,0,0,0,53,43.946V40H51Z"/><path d="M58,2H22.931A5.938,5.938,0,0,0,17,7.931V8H12.069A5.075,5.075,0,0,0,7,13.069v6.862a5.074,5.074,0,0,0,4,4.951V28h2V25h5a1,1,0,0,0,1-1V18H51V28h2V17.926a6.967,6.967,0,0,0,6-6.887V3A1,1,0,0,0,58,2ZM17,17v6H12.069A3.073,3.073,0,0,1,9,19.931V13.069A3.073,3.073,0,0,1,12.069,10H17Zm40-5.961A4.967,4.967,0,0,1,52.039,16H19V7.931A3.935,3.935,0,0,1,22.931,4H57Z"/><path d="M11.07,28H24.93A3.07,3.07,0,0,1,28,31.07V34A10,10,0,0,1,18,44h0A10,10,0,0,1,8,34V31.07A3.07,3.07,0,0,1,11.07,28Z" style="fill:#027de5"/><path d="M39.07,28H52.93A3.07,3.07,0,0,1,56,31.07V34A10,10,0,0,1,46,44h0A10,10,0,0,1,36,34V31.07A3.07,3.07,0,0,1,39.07,28Z" style="fill:#027de5"/><path d="M36.293,34.707l-1-1a4.664,4.664,0,0,0-6.586,0l-1,1-1.414-1.414,1-1a6.663,6.663,0,0,1,9.414,0l1,1Z" style="fill:#027de5"/><path d="M10,34V32.014A2.014,2.014,0,0,1,12.014,30H14Z" style="fill:#fff"/><path d="M53.561,28.066a10,10,0,0,1-16.754,9.871A10,10,0,0,0,56,34V31.07A3.071,3.071,0,0,0,53.561,28.066Z" style="fill:#0468ad"/><path d="M25.561,28.066A10,10,0,0,1,8.807,37.937,10,10,0,0,0,28,34V31.07A3.071,3.071,0,0,0,25.561,28.066Z" style="fill:#0468ad"/><rect height="7" width="2" x="49" y="32"/><rect height="5" width="2" x="45" y="34"/><rect height="4" width="2" x="41" y="35"/><path d="M17.344,34.49a1.025,1.025,0,0,1-.069-1.512,1.049,1.049,0,0,1,1.45,0l1.568,1.568,1.414-1.414-1.568-1.568a3.005,3.005,0,0,0-1.139-.7V28H17v2.859a3.015,3.015,0,0,0-.937,5.167l2.593,2.161a1.026,1.026,0,0,1,.069,1.513,1.051,1.051,0,0,1-1.45,0l-1.568-1.568-1.414,1.414,1.568,1.568a2.99,2.99,0,0,0,1.139.7V44h2V41.818a2.99,2.99,0,0,0,1.139-.7,3.025,3.025,0,0,0-.2-4.463Z"/></svg>