<?xml version="1.0" ?><svg id="fill" viewBox="0 0 64 64" xmlns="http://www.w3.org/2000/svg"><path d="M35,21h6a3,3,0,0,1,0-6H55a3,3,0,0,1,0,6H49a3,3,0,0,1,0,6H35a3,3,0,0,1,0-6Z" style="fill:#cfcfd9"/><path d="M49,28H40V26h9a2,2,0,0,0,0-4,1,1,0,0,1,0-2h6a2,2,0,0,0,0-4H41a2,2,0,0,0-.779.157l-.778-1.842A3.975,3.975,0,0,1,41,14H55a4,4,0,0,1,0,8H52.463A4,4,0,0,1,49,28Z"/><path d="M31.315,25.557A4,4,0,0,1,35,20h1v2H35a2,2,0,0,0-1.843,2.779Z"/><path d="M28,55H21a3,3,0,0,0,0-6H9a3,3,0,0,0,0,6h7a3,3,0,0,0,0,6H28a3,3,0,0,0,0-6Z" style="fill:#cfcfd9"/><path d="M36,9v6H26V9H22V61h4V59H36v2h4V9Zm0,46H26V49H36Zm0-10H26V29H36Zm0-20H26V19H36Z" style="fill:#027de5"/><path d="M39,40H33a3,3,0,0,0,0-6H19a3,3,0,0,0,0,6h6a3,3,0,0,0,0,6H39a3,3,0,0,0,0-6Z" style="fill:#d9dae2"/><path d="M24,7H21a2,2,0,0,0,0-4H13a2,2,0,0,0,0,4h3a2,2,0,0,0,0,4h8a2,2,0,0,0,0-4Z" style="fill:#d9dae2"/><path d="M22.035,61H16a4,4,0,0,1-3.463-6H9a4,4,0,0,1,0-8H22v2H9a2,2,0,0,0,0,4h7a1,1,0,0,1,0,2,2,2,0,0,0,0,4h6.035Z"/><path d="M39,47H25a4,4,0,0,1-3.463-6H19a4,4,0,0,1,0-8H33a4,4,0,0,1,3.463,6H39a4,4,0,0,1,0,8ZM25,41a2,2,0,0,0,0,4H39a2,2,0,0,0,0-4H33a1,1,0,0,1,0-2,2,2,0,0,0,0-4H19a2,2,0,0,0,0,4h6a1,1,0,0,1,0,2Z"/><path d="M24,12H16a3,3,0,0,1-2.829-4H13a3,3,0,0,1,0-6h8a3,3,0,0,1,2.829,4H24a3,3,0,0,1,0,6ZM16,8a1,1,0,0,0,0,2h8a1,1,0,0,0,0-2H21a1,1,0,0,1,0-2,1,1,0,0,0,0-2H13a1,1,0,0,0,0,2h3a1,1,0,0,1,0,2Z"/></svg>