<?xml version="1.0" ?><svg id="fill" viewBox="0 0 64 64" xmlns="http://www.w3.org/2000/svg"><path d="M25.5,25,24,28.01a25.232,25.232,0,0,1-8.567,9.705L15,38l.5.215A25.224,25.224,0,0,0,29,40h0l3-1h4.838A19.5,19.5,0,0,1,43,40h0V36.4a19.487,19.487,0,0,0-2.777-10.026L39.4,25Z" style="fill:#027de5"/><path d="M40.223,26.371,39.4,25H38.086A19.48,19.48,0,0,1,40,33.4h0a2.836,2.836,0,0,1-3.234,2.823A19.5,19.5,0,0,0,33.838,36H29l-3,1a25.2,25.2,0,0,1-9.078-.369c-.485.377-.981.741-1.494,1.084L15,38l.5.215A25.224,25.224,0,0,0,29,40l3-1h4.838A19.5,19.5,0,0,1,43,40V36.4A19.493,19.493,0,0,0,40.223,26.371Z" style="fill:#0468ad"/><polygon points="35 45 29 45 29 39 26 36 26 27 38 27 38 36 35 39 35 45" style="fill:#444"/><polygon points="47 12 38 21 26 21 17 12 14 15 26 27 26 32 38 32 38 27 50 15 47 12" style="fill:#d9dae2"/><polygon points="47 12 46 13 48 15 36 27 36 32 38 32 38 27 50 15 47 12" style="fill:#cfcfd9"/><path d="M32,8h0a3,3,0,0,1,3,3v6a0,0,0,0,1,0,0H29a0,0,0,0,1,0,0V11A3,3,0,0,1,32,8Z" style="fill:#e5e6eb" transform="translate(64 25) rotate(180)"/><path d="M33,8v6a2.99,2.99,0,0,1-2,2.816A2.962,2.962,0,0,0,32,17a3,3,0,0,0,3-3V8Z" style="fill:#d9dae2"/><polygon points="37 9 27 9 27 3 30 5 32 3 34 5 37 3 37 9" style="fill:#85b4e0"/><path d="M31,9H27V3l3,2,2-2,2,2,3-2h0A6,6,0,0,1,31,9Z" style="fill:#94c7f2"/><rect height="2" style="fill:#cceaff" width="2" x="54" y="25"/><rect height="2" style="fill:#cceaff" width="2" x="56" y="23"/><rect height="2" style="fill:#cceaff" width="2" x="58" y="25"/><rect height="2" style="fill:#cceaff" width="2" x="56" y="27"/><rect height="2" style="fill:#cceaff" width="2" x="4" y="21"/><rect height="2" style="fill:#cceaff" width="2" x="6" y="19"/><rect height="2" style="fill:#cceaff" width="2" x="8" y="21"/><rect height="2" style="fill:#cceaff" width="2" x="6" y="23"/><rect height="2" style="fill:#cceaff" width="2" x="7" y="5"/><rect height="2" style="fill:#cceaff" width="2" x="9" y="3"/><rect height="2" style="fill:#cceaff" width="2" x="11" y="5"/><rect height="2" style="fill:#cceaff" width="2" x="9" y="7"/><rect height="2" style="fill:#cceaff" width="2" x="53" y="6"/><rect height="2" style="fill:#cceaff" width="2" x="55" y="4"/><rect height="2" style="fill:#cceaff" width="2" x="57" y="6"/><rect height="2" style="fill:#cceaff" width="2" x="55" y="8"/><polygon points="38 53 38 45 26 45 26 53 16 53 16 61 48 61 48 53 38 53" style="fill:#e5e6eb"/><rect height="8" style="fill:#cfcfd9" width="2" x="36" y="45"/><polygon points="46 53 46 59 16 59 16 61 48 61 48 53 46 53" style="fill:#cfcfd9"/><rect height="6" style="fill:#444" width="2" x="31" y="49"/><polygon points="26 49 26 45 30 45 26 49" style="fill:#fff"/><circle cx="32" cy="28" r="1" style="fill:#fff"/><polygon points="36 21 32 25 28 21 36 21" style="fill:#027de5"/><rect height="6" width="2" x="31" y="49"/><path d="M32,18a4,4,0,0,0,4-4V9H34v5a2,2,0,0,1-4,0V9H28v5A4,4,0,0,0,32,18Z"/><rect height="2" width="2" x="54" y="25"/><rect height="2" width="2" x="56" y="23"/><rect height="2" width="2" x="58" y="25"/><rect height="2" width="2" x="56" y="27"/><rect height="2" width="2" x="4" y="21"/><rect height="2" width="2" x="6" y="19"/><rect height="2" width="2" x="8" y="21"/><rect height="2" width="2" x="6" y="23"/><rect height="2" width="2" x="7" y="5"/><rect height="2" width="2" x="9" y="3"/><rect height="2" width="2" x="11" y="5"/><rect height="2" width="2" x="9" y="7"/><rect height="2" width="2" x="53" y="6"/><rect height="2" width="2" x="55" y="4"/><rect height="2" width="2" x="57" y="6"/><rect height="2" width="2" x="55" y="8"/><path d="M47.707,11.293a1,1,0,0,0-1.414,0l-9,9A1,1,0,0,0,37,21V31H27V21a1,1,0,0,0-.293-.707l-9-9a1,1,0,0,0-1.414,0l-3,3a1,1,0,0,0,0,1.414L25,27.414V36a1,1,0,0,0,.293.707L28,39.414V44H26a1,1,0,0,0-1,1v7H16a1,1,0,0,0-1,1v8a1,1,0,0,0,1,1H48a1,1,0,0,0,1-1V53a1,1,0,0,0-1-1H39V45a1,1,0,0,0-1-1H36V39.414l2.707-2.707A1,1,0,0,0,39,36V27.414L50.707,15.707a1,1,0,0,0,0-1.414ZM15.414,15,17,13.414l8,8v3.172ZM38,54h9v6H17V54h9a1,1,0,0,0,1-1V46H37v7A1,1,0,0,0,38,54ZM34.293,38.293A1,1,0,0,0,34,39v5H30V39a1,1,0,0,0-.293-.707L27,35.586V33H37v2.586ZM39,24.586V21.414l8-8L48.586,15Z"/></svg>