<?xml version="1.0" ?><svg id="fill" viewBox="0 0 64 64" xmlns="http://www.w3.org/2000/svg"><rect height="8" style="fill:#d9dae2" width="4" x="27" y="8"/><rect height="8" style="fill:#cfcfd9" width="2" x="29" y="8"/><circle cx="29" cy="38" r="23" style="fill:#e5e6eb"/><path d="M44.229,20.771A22.994,22.994,0,0,1,11.771,53.229,23,23,0,1,0,44.229,20.771Z" style="fill:#cfcfd9"/><circle cx="29" cy="38" r="19" style="fill:#444"/><path d="M35,9V5.1A2.1,2.1,0,0,0,32.9,3H25.1A2.1,2.1,0,0,0,23,5.1V9Z" style="fill:#e5e6eb"/><path d="M32.9,3h-2A2.1,2.1,0,0,1,33,5.1V9h2V5.1A2.1,2.1,0,0,0,32.9,3Z" style="fill:#cfcfd9"/><polygon points="27 28 27 36 17 36 17 40 31 40 31 28 27 28" style="fill:#0468ad"/><path d="M30,22V19.05c-.333-.017-.662-.05-1-.05s-.667.033-1,.05V22Z" style="fill:#fff"/><path d="M28,54v2.95c.333.017.662.05,1,.05s.667-.033,1-.05V54Z" style="fill:#fff"/><path d="M13,37H10.05c-.017.333-.05.662-.05,1s.033.667.05,1H13Z" style="fill:#fff"/><path d="M45,39h2.95c.017-.333.05-.662.05-1s-.033-.667-.05-1H45Z" style="fill:#fff"/><path d="M21.866,23.644l-1.48-2.564a18.889,18.889,0,0,0-1.733,1l1.481,2.567Z" style="fill:#fff"/><path d="M36.134,52.356l1.48,2.564a18.817,18.817,0,0,0,1.734-1l-1.482-2.566Z" style="fill:#fff"/><path d="M14.644,45.134l-2.564,1.48a18.817,18.817,0,0,0,1,1.734l2.566-1.482Z" style="fill:#fff"/><path d="M43.356,30.866l2.564-1.48a18.817,18.817,0,0,0-1-1.734l-2.566,1.482Z" style="fill:#fff"/><path d="M15.644,29.134l-2.566-1.482a18.817,18.817,0,0,0-1,1.734l2.564,1.48Z" style="fill:#fff"/><path d="M42.356,46.866l2.566,1.482a18.817,18.817,0,0,0,1-1.734l-2.564-1.48Z" style="fill:#fff"/><path d="M20.134,51.356l-1.482,2.566a18.817,18.817,0,0,0,1.734,1l1.48-2.564Z" style="fill:#fff"/><path d="M37.866,24.644l1.481-2.567a18.889,18.889,0,0,0-1.733-1l-1.48,2.564Z" style="fill:#fff"/><path d="M48.905,36.123c-.016-.166-.039-.329-.059-.494q-.083-.711-.215-1.409c-.029-.15-.058-.3-.091-.449q-.171-.8-.407-1.583c-.018-.057-.032-.115-.05-.172a19.742,19.742,0,0,0-1.48-3.5c-.025-.047-.053-.092-.079-.138q-.4-.729-.867-1.427c-.059-.088-.118-.174-.178-.261-.131-.19-.251-.385-.389-.572l-.025.019a20.119,20.119,0,0,0-3.112-3.348l.015-.017c-.074-.063-.154-.116-.229-.178-.043-.035-.088-.067-.131-.1-.434-.353-.879-.688-1.338-1-.12-.083-.246-.158-.368-.237-.386-.251-.776-.493-1.177-.716-.189-.106-.382-.2-.574-.3-.345-.178-.692-.348-1.046-.5-.24-.107-.484-.207-.729-.3q-.481-.191-.972-.356c-.272-.093-.546-.182-.823-.263-.324-.094-.65-.175-.978-.252-.28-.066-.558-.135-.842-.189-.373-.072-.75-.123-1.127-.173-.243-.032-.483-.074-.729-.1-.631-.06-1.266-.1-1.905-.1A20,20,0,1,0,49,38C49,37.369,48.962,36.744,48.905,36.123ZM43.837,27.83c.049.074.1.146.15.22.022.034.041.071.064.105l-1.7.979,1,1.732,1.691-.976c.1.187.186.378.275.569.126.272.252.543.363.82.107.262.2.531.294.8.11.319.218.638.311.963.064.226.12.455.176.685.094.388.18.778.248,1.173.031.178.056.357.082.536.063.449.113.9.143,1.356,0,.069.006.139.01.208H45v2h1.949a18,18,0,0,1-.59,3.689l-.005.019a17.685,17.685,0,0,1-.559,1.714l-.014.038a17.534,17.534,0,0,1-.734,1.65l-1.691-.976-1,1.732,1.7.979h0a18.136,18.136,0,0,1-5.207,5.206l-.978-1.7-1.732,1,.976,1.691a17.84,17.84,0,0,1-1.652.735l-.033.012a17.856,17.856,0,0,1-1.718.56l-.016,0A17.952,17.952,0,0,1,30,55.949V54H28v1.949a17.952,17.952,0,0,1-3.691-.591l-.016,0a17.856,17.856,0,0,1-1.718-.56l-.033-.012a17.84,17.84,0,0,1-1.652-.735l.976-1.691-1.732-1-.978,1.7a18.136,18.136,0,0,1-5.207-5.206h0l1.7-.979-1-1.732-1.691.976a17.534,17.534,0,0,1-.734-1.65l-.014-.038a17.685,17.685,0,0,1-.559-1.714l-.005-.019A18,18,0,0,1,11.051,39H13V37H11.051a18,18,0,0,1,.59-3.689l.005-.019a17.685,17.685,0,0,1,.559-1.714l.014-.038a17.534,17.534,0,0,1,.734-1.65l1.691.976,1-1.732-1.7-.979h0a18.136,18.136,0,0,1,5.207-5.206l.978,1.695,1.732-1-.976-1.691a17.84,17.84,0,0,1,1.652-.735l.033-.012a17.856,17.856,0,0,1,1.718-.56l.016,0A17.952,17.952,0,0,1,28,20.051V22h2V20.051l.108.005q.831.051,1.649.178l.165.025q.838.138,1.66.355l.135.034c.543.148,1.079.323,1.606.521.051.019.1.036.154.056.508.2,1.005.419,1.494.66.046.023.093.044.139.068l-.976,1.691,1.732,1,.978-1.694c.174.113.343.235.514.354.364.257.726.517,1.069.8l.021.016A18.111,18.111,0,0,1,43.837,27.83Z"/><path d="M16,36v4a1,1,0,0,0,1,1H28.72a6.025,6.025,0,0,1-.571-.4L32,38.229V35.988L30.776,34,30,34.478V39H18V37h8V35H17A1,1,0,0,0,16,36Z"/><path d="M31,27H27a1,1,0,0,0-1,1v7h.092A6,6,0,0,1,28,31.537V29h2v1.349A5.971,5.971,0,0,1,32,30V28A1,1,0,0,0,31,27Z"/><path d="M52.928,36.236c-.01-.145-.02-.289-.033-.433-.048-.532-.112-1.06-.2-1.582-.032-.2-.071-.4-.107-.6q-.1-.528-.219-1.046c-.084-.366-.178-.728-.279-1.088-.077-.272-.155-.542-.241-.81-.094-.294-.192-.587-.3-.878-.078-.213-.163-.421-.247-.631-.183-.461-.377-.917-.59-1.366-.086-.183-.176-.363-.266-.543q-.329-.651-.7-1.283c-.124-.213-.25-.425-.38-.634-.153-.246-.307-.492-.47-.733-.242-.358-.5-.708-.755-1.053-.077-.1-.145-.211-.224-.313l-.014.011a24.162,24.162,0,0,0-3.036-3.229l.011-.012c-.146-.129-.3-.243-.449-.367s-.3-.253-.46-.377c-.3-.238-.6-.469-.906-.692-.27-.2-.541-.387-.819-.572q-.255-.168-.516-.331A23.832,23.832,0,0,0,32,14.194V10h3a1,1,0,0,0,1-1V5.1A3.107,3.107,0,0,0,32.9,2H25.1A3.107,3.107,0,0,0,22,5.1V9a1,1,0,0,0,1,1h3v4.194a23.842,23.842,0,0,0-10.1,3.714l-.01.006q-.873.572-1.69,1.216l-.069.054q-.8.634-1.543,1.331l-.079.076c-.493.467-.968.953-1.42,1.46-.017.02-.034.041-.052.061a24.121,24.121,0,0,0-2.5,3.372l-.005.008c-.351.573-.675,1.164-.979,1.767-.027.055-.057.109-.084.165-.285.577-.544,1.169-.782,1.771-.034.084-.068.168-.1.253q-.341.888-.61,1.808c-.028.1-.055.193-.082.29-.173.616-.323,1.241-.446,1.876-.018.091-.032.184-.049.276-.118.651-.215,1.309-.279,1.976-.007.066-.01.132-.015.2-.062.7-.1,1.411-.1,2.129a24,24,0,0,0,48,0C53,37.406,52.971,36.819,52.928,36.236ZM24,8V5.1A1.1,1.1,0,0,1,25.1,4H32.9A1.1,1.1,0,0,1,34,5.1V8Zm4,6.025V10h2v4.025c-.332-.013-.665-.025-1-.025S28.332,14.012,28,14.025ZM29,60a22,22,0,0,1,0-44c.626,0,1.248.032,1.867.085.069.006.137.009.2.016.6.056,1.187.139,1.773.242l.239.043q.867.164,1.717.4c.082.022.163.046.244.069.558.16,1.11.339,1.653.542.088.033.175.07.262.1.531.206,1.054.428,1.567.675.1.048.2.1.3.151.42.21.833.436,1.241.673.181.106.362.213.54.325.359.222.709.458,1.055.7.2.139.395.279.587.425.336.253.662.519.984.792a22.275,22.275,0,0,1,3.334,3.528c.236.313.465.631.683.954.152.224.3.453.439.683.116.186.227.374.337.563q.342.587.648,1.2c.081.161.161.321.238.484.2.424.384.856.557,1.3.071.179.145.357.21.538.1.267.188.538.275.811q.115.361.217.728.142.5.26,1.013c.073.315.141.632.2.951.034.184.07.368.1.553q.112.718.179,1.449c.012.132.02.264.03.4.039.536.066,1.074.066,1.617A22.025,22.025,0,0,1,29,60Z"/><path d="M57.926,14.837l-4.7,2.894L51,14.118l4.851-2.985a5.993,5.993,0,0,0-9.229,7.245L34.466,30.534a5.969,5.969,0,0,0-8.392,6.36L30.776,34,33,37.613,28.149,40.6a6,6,0,0,0,9.317-7.065L49.72,21.28a5.97,5.97,0,0,0,8.206-6.443Z" style="fill:#027de5"/></svg>