<?xml version="1.0" ?><svg id="fill" viewBox="0 0 64 64" xmlns="http://www.w3.org/2000/svg"><rect height="40" rx="3.92" ry="3.92" style="fill:#d9dae2" width="58" x="3" y="5"/><path d="M58.662,5.338A3.905,3.905,0,0,1,59,6.92V39.08A3.92,3.92,0,0,1,55.08,43H4.92a3.905,3.905,0,0,1-1.582-.338A3.918,3.918,0,0,0,6.92,45H57.08A3.92,3.92,0,0,0,61,41.08V8.92A3.918,3.918,0,0,0,58.662,5.338Z" style="fill:#cfcfd9"/><path d="M7,33H57a0,0,0,0,1,0,0v6.926A1.074,1.074,0,0,1,55.926,41H8.074A1.074,1.074,0,0,1,7,39.926V33a0,0,0,0,1,0,0Z" style="fill:#e5e6eb"/><path d="M55,33v4.926A1.074,1.074,0,0,1,53.926,39H7v.926A1.074,1.074,0,0,0,8.074,41H55.926A1.074,1.074,0,0,0,57,39.926V33Z" style="fill:#cfcfd9"/><path d="M8.183,9H55.817A1.183,1.183,0,0,1,57,10.183V29a0,0,0,0,1,0,0H7a0,0,0,0,1,0,0V10.183A1.183,1.183,0,0,1,8.183,9Z" style="fill:#027de5"/><path d="M39,54V45H35v9H29V45H25v9H21a1,1,0,0,0-1,1V58a1,1,0,0,0,1,1H43a1,1,0,0,0,1-1V55a1,1,0,0,0-1-1Z" style="fill:#e5e6eb"/><path d="M20,57H44a0,0,0,0,1,0,0v1.062a.938.938,0,0,1-.938.938H20.938A.938.938,0,0,1,20,58.062V57A0,0,0,0,1,20,57Z" style="fill:#cfcfd9"/><polygon points="29 54 29 45 25 45 29 54" style="fill:#cfcfd9"/><polygon points="39 54 39 45 35 45 39 54" style="fill:#cfcfd9"/><polygon points="10 20 10 12 18 12 10 20" style="fill:#fff"/><polygon points="10 37 10 33 14 33 10 37" style="fill:#fff"/><path d="M57.08,4H6.92A4.925,4.925,0,0,0,2,8.92V41.08A4.925,4.925,0,0,0,6.92,46H24v7H20a1,1,0,0,0-1,1v5a1,1,0,0,0,1,1H44a1,1,0,0,0,1-1V54a1,1,0,0,0-1-1H40V46H57.08A4.925,4.925,0,0,0,62,41.08V8.92A4.925,4.925,0,0,0,57.08,4ZM39,55h4v3H21V55h4a1,1,0,0,0,1-1V46h2v8a1,1,0,0,0,1,1h6a1,1,0,0,0,1-1V46h2v8A1,1,0,0,0,39,55Zm-9-9h4v7H30Zm30-4.92A2.923,2.923,0,0,1,57.08,44H6.92A2.923,2.923,0,0,1,4,41.08V8.92A2.923,2.923,0,0,1,6.92,6H57.08A2.923,2.923,0,0,1,60,8.92Z"/><path d="M57,32H7a1,1,0,0,0-1,1v6.926A2.077,2.077,0,0,0,8.074,42H55.926A2.077,2.077,0,0,0,58,39.926V33A1,1,0,0,0,57,32Zm-1,7.926a.074.074,0,0,1-.074.074H8.074A.074.074,0,0,1,8,39.926V34H56Z"/></svg>